<mxfile host="app.diagrams.net" agent="Mozilla/5.0 (Windows NT 10.0; Win64; x64) AppleWebKit/537.36 (KHTML, like Gecko) Chrome/130.0.0.0 Safari/537.36" version="24.8.6">
  <diagram id="C5RBs43oDa-KdzZeNtuy" name="Page-1">
    <mxGraphModel dx="521" dy="557" grid="1" gridSize="10" guides="1" tooltips="1" connect="1" arrows="1" fold="1" page="1" pageScale="1" pageWidth="827" pageHeight="1169" math="0" shadow="0">
      <root>
        <mxCell id="WIyWlLk6GJQsqaUBKTNV-0" />
        <mxCell id="WIyWlLk6GJQsqaUBKTNV-1" parent="WIyWlLk6GJQsqaUBKTNV-0" />
        <mxCell id="mve0srddAX7wce5q0mr--5" value="" style="edgeStyle=orthogonalEdgeStyle;rounded=0;orthogonalLoop=1;jettySize=auto;html=1;" edge="1" parent="WIyWlLk6GJQsqaUBKTNV-1" source="mve0srddAX7wce5q0mr--3" target="mve0srddAX7wce5q0mr--4">
          <mxGeometry relative="1" as="geometry" />
        </mxCell>
        <mxCell id="mve0srddAX7wce5q0mr--3" value="START&lt;div&gt;&lt;br&gt;&lt;/div&gt;" style="ellipse;whiteSpace=wrap;html=1;" vertex="1" parent="WIyWlLk6GJQsqaUBKTNV-1">
          <mxGeometry x="334" y="60" width="80" height="80" as="geometry" />
        </mxCell>
        <mxCell id="mve0srddAX7wce5q0mr--7" value="" style="edgeStyle=orthogonalEdgeStyle;rounded=0;orthogonalLoop=1;jettySize=auto;html=1;" edge="1" parent="WIyWlLk6GJQsqaUBKTNV-1" source="mve0srddAX7wce5q0mr--4" target="mve0srddAX7wce5q0mr--6">
          <mxGeometry relative="1" as="geometry" />
        </mxCell>
        <mxCell id="mve0srddAX7wce5q0mr--4" value="nhập điểm&amp;nbsp;" style="shape=parallelogram;perimeter=parallelogramPerimeter;whiteSpace=wrap;html=1;fixedSize=1;" vertex="1" parent="WIyWlLk6GJQsqaUBKTNV-1">
          <mxGeometry x="314" y="230" width="120" height="60" as="geometry" />
        </mxCell>
        <mxCell id="mve0srddAX7wce5q0mr--10" value="đúng" style="edgeStyle=orthogonalEdgeStyle;rounded=0;orthogonalLoop=1;jettySize=auto;html=1;" edge="1" parent="WIyWlLk6GJQsqaUBKTNV-1" source="mve0srddAX7wce5q0mr--6" target="mve0srddAX7wce5q0mr--9">
          <mxGeometry relative="1" as="geometry" />
        </mxCell>
        <mxCell id="mve0srddAX7wce5q0mr--12" value="sai" style="edgeStyle=orthogonalEdgeStyle;rounded=0;orthogonalLoop=1;jettySize=auto;html=1;" edge="1" parent="WIyWlLk6GJQsqaUBKTNV-1" source="mve0srddAX7wce5q0mr--6" target="mve0srddAX7wce5q0mr--11">
          <mxGeometry relative="1" as="geometry" />
        </mxCell>
        <mxCell id="mve0srddAX7wce5q0mr--6" value="điểm &amp;gt;=5" style="rhombus;whiteSpace=wrap;html=1;" vertex="1" parent="WIyWlLk6GJQsqaUBKTNV-1">
          <mxGeometry x="310" y="370" width="130" height="100" as="geometry" />
        </mxCell>
        <mxCell id="mve0srddAX7wce5q0mr--9" value="xếp loại đạt" style="shape=parallelogram;perimeter=parallelogramPerimeter;whiteSpace=wrap;html=1;fixedSize=1;" vertex="1" parent="WIyWlLk6GJQsqaUBKTNV-1">
          <mxGeometry x="525" y="500" width="120" height="60" as="geometry" />
        </mxCell>
        <mxCell id="mve0srddAX7wce5q0mr--11" value="xếp loại không đạt" style="shape=parallelogram;perimeter=parallelogramPerimeter;whiteSpace=wrap;html=1;fixedSize=1;" vertex="1" parent="WIyWlLk6GJQsqaUBKTNV-1">
          <mxGeometry x="90" y="500" width="120" height="60" as="geometry" />
        </mxCell>
        <mxCell id="mve0srddAX7wce5q0mr--22" value="" style="edgeStyle=orthogonalEdgeStyle;rounded=0;orthogonalLoop=1;jettySize=auto;html=1;" edge="1" parent="WIyWlLk6GJQsqaUBKTNV-1" source="mve0srddAX7wce5q0mr--13" target="mve0srddAX7wce5q0mr--21">
          <mxGeometry relative="1" as="geometry" />
        </mxCell>
        <mxCell id="mve0srddAX7wce5q0mr--13" value="hiển thị xếp loại" style="whiteSpace=wrap;html=1;" vertex="1" parent="WIyWlLk6GJQsqaUBKTNV-1">
          <mxGeometry x="320" y="650" width="120" height="60" as="geometry" />
        </mxCell>
        <mxCell id="mve0srddAX7wce5q0mr--15" value="" style="endArrow=classic;html=1;rounded=0;exitX=0.395;exitY=1.003;exitDx=0;exitDy=0;exitPerimeter=0;" edge="1" parent="WIyWlLk6GJQsqaUBKTNV-1" source="mve0srddAX7wce5q0mr--11">
          <mxGeometry width="50" height="50" relative="1" as="geometry">
            <mxPoint x="330" y="630" as="sourcePoint" />
            <mxPoint x="140" y="680" as="targetPoint" />
          </mxGeometry>
        </mxCell>
        <mxCell id="mve0srddAX7wce5q0mr--16" value="" style="endArrow=classic;html=1;rounded=0;entryX=0;entryY=0.5;entryDx=0;entryDy=0;" edge="1" parent="WIyWlLk6GJQsqaUBKTNV-1" target="mve0srddAX7wce5q0mr--13">
          <mxGeometry width="50" height="50" relative="1" as="geometry">
            <mxPoint x="140" y="680" as="sourcePoint" />
            <mxPoint x="380" y="580" as="targetPoint" />
          </mxGeometry>
        </mxCell>
        <mxCell id="mve0srddAX7wce5q0mr--17" value="" style="endArrow=classic;html=1;rounded=0;exitX=0.5;exitY=1;exitDx=0;exitDy=0;" edge="1" parent="WIyWlLk6GJQsqaUBKTNV-1" source="mve0srddAX7wce5q0mr--9">
          <mxGeometry width="50" height="50" relative="1" as="geometry">
            <mxPoint x="330" y="630" as="sourcePoint" />
            <mxPoint x="580" y="690" as="targetPoint" />
          </mxGeometry>
        </mxCell>
        <mxCell id="mve0srddAX7wce5q0mr--20" value="" style="endArrow=classic;html=1;rounded=0;entryX=1;entryY=0.5;entryDx=0;entryDy=0;" edge="1" parent="WIyWlLk6GJQsqaUBKTNV-1" target="mve0srddAX7wce5q0mr--13">
          <mxGeometry width="50" height="50" relative="1" as="geometry">
            <mxPoint x="580" y="680" as="sourcePoint" />
            <mxPoint x="380" y="580" as="targetPoint" />
          </mxGeometry>
        </mxCell>
        <mxCell id="mve0srddAX7wce5q0mr--21" value="END" style="ellipse;whiteSpace=wrap;html=1;" vertex="1" parent="WIyWlLk6GJQsqaUBKTNV-1">
          <mxGeometry x="340" y="780" width="80" height="80" as="geometry" />
        </mxCell>
      </root>
    </mxGraphModel>
  </diagram>
</mxfile>
